HIERARCHY
ROOT Hips
{
  OFFSET 5.80788e-005 67.184 3.4734
  CHANNELS 6 Xposition Yposition Zposition Zrotation Xrotation Yrotation
  JOINT Chest
  {
    OFFSET 0 8.7983 -4.7612
    CHANNELS 6 Xposition Yposition Zposition Zrotation Xrotation Yrotation
    JOINT Chest2
    {
      OFFSET 0 8.0291 0.4195
      CHANNELS 6 Xposition Yposition Zposition Zrotation Xrotation Yrotation
      JOINT Chest3
      {
        OFFSET 0 9.9351 -2.2114
        CHANNELS 6 Xposition Yposition Zposition Zrotation Xrotation Yrotation
        JOINT Neck
        {
          OFFSET 0 22.3885 -0.4656
          CHANNELS 6 Xposition Yposition Zposition Zrotation Xrotation Yrotation
          JOINT Head
          {
            OFFSET -0.0001 12.643 3.4389
            CHANNELS 6 Xposition Yposition Zposition Zrotation Xrotation Yrotation
            End Site
            {
              OFFSET 0.0001 17.6655 0.5274
            }
          }
        }
        JOINT LeftCollar
        {
          OFFSET 2.2603 21.606 7.4023
          CHANNELS 6 Xposition Yposition Zposition Zrotation Xrotation Yrotation
          JOINT LeftShoulder
          {
            OFFSET 13.5163 -1.1332 -5.0146
            CHANNELS 6 Xposition Yposition Zposition Zrotation Xrotation Yrotation
            JOINT LeftElbow
            {
              OFFSET -0.0995 -28.05 -0.2431
              CHANNELS 6 Xposition Yposition Zposition Zrotation Xrotation Yrotation
              JOINT LeftWrist
              {
                OFFSET 0.0679 -23.3996 -0.1402
                CHANNELS 6 Xposition Yposition Zposition Zrotation Xrotation Yrotation
                JOINT LeftFinger1
                {
                  OFFSET 0.7932 -9.069 2.5189
                  CHANNELS 6 Xposition Yposition Zposition Zrotation Xrotation Yrotation
                  JOINT LeftFinger11
                  {
                    OFFSET -0.8272 -3.3923 0.5977
                    CHANNELS 6 Xposition Yposition Zposition Zrotation Xrotation Yrotation
                    JOINT LeftFinger12
                    {
                      OFFSET -0.5649 -2.3158 0.4082
                      CHANNELS 6 Xposition Yposition Zposition Zrotation Xrotation Yrotation
                      End Site
                      {
                        OFFSET -0.4919 -1.6479 0.2673
                      }
                    }
                  }
                }
                JOINT LeftFinger2
                {
                  OFFSET 0.9159 -9.2044 0.2193
                  CHANNELS 6 Xposition Yposition Zposition Zrotation Xrotation Yrotation
                  JOINT LeftFinger21
                  {
                    OFFSET 0.0117 -4.1944 -0.0248
                    CHANNELS 6 Xposition Yposition Zposition Zrotation Xrotation Yrotation
                    JOINT LeftFinger22
                    {
                      OFFSET 0.0071 -2.3249 -0.0142
                      CHANNELS 6 Xposition Yposition Zposition Zrotation Xrotation Yrotation
                      End Site
                      {
                        OFFSET -0.1475 -2.0882 0.0028
                      }
                    }
                  }
                }
                JOINT LeftFinger3
                {
                  OFFSET 0.6113 -8.7231 -2.0637
                  CHANNELS 6 Xposition Yposition Zposition Zrotation Xrotation Yrotation
                  JOINT LeftFinger31
                  {
                    OFFSET -0.1927 -3.8059 -0.2383
                    CHANNELS 6 Xposition Yposition Zposition Zrotation Xrotation Yrotation
                    JOINT LeftFinger32
                    {
                      OFFSET -0.1091 -2.1688 -0.1362
                      CHANNELS 6 Xposition Yposition Zposition Zrotation Xrotation Yrotation
                      End Site
                      {
                        OFFSET -0.2358 -1.9176 -0.0906
                      }
                    }
                  }
                }
                JOINT LeftFinger4
                {
                  OFFSET -0.6151 -8.0947 -3.5641
                  CHANNELS 6 Xposition Yposition Zposition Zrotation Xrotation Yrotation
                  JOINT LeftFinger41
                  {
                    OFFSET -0.4882 -2.341 -0.6462
                    CHANNELS 6 Xposition Yposition Zposition Zrotation Xrotation Yrotation
                    JOINT LeftFinger42
                    {
                      OFFSET -0.3575 -1.7167 -0.4742
                      CHANNELS 6 Xposition Yposition Zposition Zrotation Xrotation Yrotation
                      End Site
                      {
                        OFFSET -0.4187 -1.5237 -0.3496
                      }
                    }
                  }
                }
                JOINT LeftFinger0
                {
                  OFFSET -1.42 -1.8761 1.4223
                  CHANNELS 6 Xposition Yposition Zposition Zrotation Xrotation Yrotation
                  JOINT LeftFinger01
                  {
                    OFFSET -1.1471 -3.4929 2.6334
                    CHANNELS 6 Xposition Yposition Zposition Zrotation Xrotation Yrotation
                    JOINT LeftFinger02
                    {
                      OFFSET -0.823 -2.3 1.6571
                      CHANNELS 6 Xposition Yposition Zposition Zrotation Xrotation Yrotation
                      End Site
                      {
                        OFFSET -0.5822 -1.6914 1.1582
                      }
                    }
                  }
                }
              }
            }
          }
        }
        JOINT RightCollar
        {
          OFFSET -2.2603 21.606 7.4023
          CHANNELS 6 Xposition Yposition Zposition Zrotation Xrotation Yrotation
          JOINT RightShoulder
          {
            OFFSET -13.5187 -1.1334 -5.0155
            CHANNELS 6 Xposition Yposition Zposition Zrotation Xrotation Yrotation
            JOINT RightElbow
            {
              OFFSET 0.0994 -28.0499 -0.2431
              CHANNELS 6 Xposition Yposition Zposition Zrotation Xrotation Yrotation
              JOINT RightWrist
              {
                OFFSET -0.0679 -23.3996 -0.1402
                CHANNELS 6 Xposition Yposition Zposition Zrotation Xrotation Yrotation
                JOINT RightFinger1
                {
                  OFFSET -0.7932 -9.0691 2.5189
                  CHANNELS 6 Xposition Yposition Zposition Zrotation Xrotation Yrotation
                  JOINT RightFinger11
                  {
                    OFFSET 0.8272 -3.3923 0.5977
                    CHANNELS 6 Xposition Yposition Zposition Zrotation Xrotation Yrotation
                    JOINT RightFinger12
                    {
                      OFFSET 0.565 -2.3158 0.4082
                      CHANNELS 6 Xposition Yposition Zposition Zrotation Xrotation Yrotation
                      End Site
                      {
                        OFFSET 0.4919 -1.6479 0.2673
                      }
                    }
                  }
                }
                JOINT RightFinger2
                {
                  OFFSET -0.916 -9.2044 0.2193
                  CHANNELS 6 Xposition Yposition Zposition Zrotation Xrotation Yrotation
                  JOINT RightFinger21
                  {
                    OFFSET -0.0117 -4.1944 -0.0248
                    CHANNELS 6 Xposition Yposition Zposition Zrotation Xrotation Yrotation
                    JOINT RightFinger22
                    {
                      OFFSET -0.0071 -2.3249 -0.0142
                      CHANNELS 6 Xposition Yposition Zposition Zrotation Xrotation Yrotation
                      End Site
                      {
                        OFFSET 0.1475 -2.0882 0.0028
                      }
                    }
                  }
                }
                JOINT RightFinger3
                {
                  OFFSET -0.6113 -8.7231 -2.0637
                  CHANNELS 6 Xposition Yposition Zposition Zrotation Xrotation Yrotation
                  JOINT RightFinger31
                  {
                    OFFSET 0.1927 -3.8059 -0.2383
                    CHANNELS 6 Xposition Yposition Zposition Zrotation Xrotation Yrotation
                    JOINT RightFinger32
                    {
                      OFFSET 0.1091 -2.1688 -0.1362
                      CHANNELS 6 Xposition Yposition Zposition Zrotation Xrotation Yrotation
                      End Site
                      {
                        OFFSET 0.2358 -1.9176 -0.0906
                      }
                    }
                  }
                }
                JOINT RightFinger4
                {
                  OFFSET 0.6151 -8.0947 -3.564
                  CHANNELS 6 Xposition Yposition Zposition Zrotation Xrotation Yrotation
                  JOINT RightFinger41
                  {
                    OFFSET 0.4882 -2.341 -0.6462
                    CHANNELS 6 Xposition Yposition Zposition Zrotation Xrotation Yrotation
                    JOINT RightFinger42
                    {
                      OFFSET 0.3574 -1.7166 -0.4742
                      CHANNELS 6 Xposition Yposition Zposition Zrotation Xrotation Yrotation
                      End Site
                      {
                        OFFSET 0.4187 -1.5237 -0.3496
                      }
                    }
                  }
                }
                JOINT RightFinger0
                {
                  OFFSET 1.4199 -1.8761 1.4221
                  CHANNELS 6 Xposition Yposition Zposition Zrotation Xrotation Yrotation
                  JOINT RightFinger01
                  {
                    OFFSET 1.1472 -3.4929 2.6336
                    CHANNELS 6 Xposition Yposition Zposition Zrotation Xrotation Yrotation
                    JOINT RightFinger02
                    {
                      OFFSET 0.8229 -2.3 1.6571
                      CHANNELS 6 Xposition Yposition Zposition Zrotation Xrotation Yrotation
                      End Site
                      {
                        OFFSET 0.5822 -1.6914 1.1582
                      }
                    }
                  }
                }
              }
            }
          }
        }
      }
    }
  }
  JOINT RightHip
  {
    OFFSET -9.412 3.9771 -0.7758
    CHANNELS 6 Xposition Yposition Zposition Zrotation Xrotation Yrotation
    JOINT RightKnee
    {
      OFFSET -0.7531 -40.938 0
      CHANNELS 6 Xposition Yposition Zposition Zrotation Xrotation Yrotation
      JOINT RightAnkle
      {
        OFFSET 0 -40.1986 0
        CHANNELS 6 Xposition Yposition Zposition Zrotation Xrotation Yrotation
        JOINT RightToe
        {
          OFFSET 0 -4.4182 9.239
          CHANNELS 6 Xposition Yposition Zposition Zrotation Xrotation Yrotation
          End Site
          {
            OFFSET 0 0 6.1981
          }
        }
      }
    }
  }
  JOINT LeftHip
  {
    OFFSET 9.4119 3.9773 -0.7758
    CHANNELS 6 Xposition Yposition Zposition Zrotation Xrotation Yrotation
    JOINT LeftKnee
    {
      OFFSET 0.7532 -40.9383 0
      CHANNELS 6 Xposition Yposition Zposition Zrotation Xrotation Yrotation
      JOINT LeftAnkle
      {
        OFFSET 0 -40.1986 0
        CHANNELS 6 Xposition Yposition Zposition Zrotation Xrotation Yrotation
        JOINT LeftToe
        {
          OFFSET 0 -4.4182 9.239
          CHANNELS 6 Xposition Yposition Zposition Zrotation Xrotation Yrotation
          End Site
          {
            OFFSET 0 0 6.1981
          }
        }
      }
    }
  }
}
MOTION
Frames:	4
Frame Time:	0.0333333
5.80788e-005 67.184 3.4734 0 0 -0 0 8.7983 -4.7612 0 0 -0 0 8.0291 0.4195 0 0 -0 0 9.9351 -2.2114 0 0 -0 0 22.3885 -0.4656 0 0 -0 -0.0001 12.643 3.4389 0 0 -0 2.2603 21.606 7.4023 0 0 -12.5014 13.5163 -1.1332 -5.0146 88.1196 14.2451 10.6914 -0.0995 -28.05 -0.2431 -0.00160068 -0.00239207 0.000740045 0.0679 -23.3996 -0.1402 -8.4365e-005 7.00714e-005 -9.52055e-007 0.7932 -9.069 2.5189 9.93923e-017 -1.98785e-016 -1.59028e-015 -0.8272 -3.3923 0.5977 9.93923e-017 -5.96354e-016 -1.59028e-015 -0.5649 -2.3158 0.4082 -9.93923e-017 -5.96354e-016 -1.59028e-015 0.9159 -9.2044 0.2193 9.93923e-017 -1.98785e-016 -1.59028e-015 0.0117 -4.1944 -0.0248 -0.0128176 0.00232552 8.52707e-005 0.0071 -2.3249 -0.0142 9.93923e-017 5.96354e-016 -0 0.6113 -8.7231 -2.0637 9.93923e-017 -1.98785e-016 -1.59028e-015 -0.1927 -3.8059 -0.2383 -0.0160551 0.00299681 0.000857156 -0.1091 -2.1688 -0.1362 -2.48481e-016 0 3.18055e-015 -0.6151 -8.0947 -3.5641 9.93923e-017 -1.98785e-016 -1.59028e-015 -0.4882 -2.341 -0.6462 -0.0125865 0.0031206 0.00282719 -0.3575 -1.7167 -0.4742 0 1.98785e-016 -0 -1.42 -1.8761 1.4223 9.93923e-017 -1.98785e-016 -1.59028e-015 -1.1471 -3.4929 2.6334 9.93923e-017 -5.96354e-016 -1.59028e-015 -0.823 -2.3 1.6571 -9.93923e-017 -5.96354e-016 -1.59028e-015 -2.2603 21.606 7.4023 -0.865644 0.16582 7.03859 -13.5187 -1.1334 -5.0155 -88.0329 10.2057 -10.5567 0.0994 -28.0499 -0.2431 0.0015593 -0.00248883 -0.000788628 -0.0679 -23.3996 -0.1402 7.87605e-005 4.10553e-005 1.24965e-005 -0.7932 -9.0691 2.5189 -3.97569e-016 -7.95139e-016 3.18055e-015 0.8272 -3.3923 0.5977 -1.98785e-016 -3.97569e-016 3.18055e-015 0.565 -2.3158 0.4082 -1.98785e-016 0 3.18055e-015 -0.916 -9.2044 0.2193 -3.97569e-016 -7.95139e-016 3.18055e-015 -0.0117 -4.1944 -0.0248 0.0129473 0.00231697 -8.70038e-005 -0.0071 -2.3249 -0.0142 9.93923e-017 -7.95139e-016 1.59028e-015 -0.6113 -8.7231 -2.0637 -3.97569e-016 -7.95139e-016 3.18055e-015 0.1927 -3.8059 -0.2383 0.0163314 0.00303369 -0.000872333 0.1091 -2.1688 -0.1362 3.97569e-016 7.95139e-016 -3.18055e-015 0.6151 -8.0947 -3.564 -3.97569e-016 -7.95139e-016 3.18055e-015 0.4882 -2.341 -0.6462 0.0145763 0.00367772 -0.00326275 0.3574 -1.7166 -0.4742 9.93923e-017 -3.97569e-016 -0 1.4199 -1.8761 1.4221 -3.97569e-016 -7.95139e-016 3.18055e-015 1.1472 -3.4929 2.6336 -1.98785e-016 -3.97569e-016 3.18055e-015 0.8229 -2.3 1.6571 -1.98785e-016 0 3.18055e-015 -9.412 3.9771 -0.7758 3.42485 1.36937 -0.0640303 -0.7531 -40.938 0 0.000136572 0.69354 0.00145564 1.77636e-015 -40.1986 -1.11022e-016 -3.42573 -2.06297 -0.0607933 8.88178e-016 -4.4182 9.239 -3.19502e-024 0 -1.48106e-024 9.4119 3.9773 -0.7758 -3.42498 1.36123 0.0639712 0.7532 -40.9383 2.22045e-016 -6.769e-005 0.712612 -0.0012277 8.88179e-016 -40.1986 0 3.42582 -2.07388 0.0612819 -8.88178e-016 -4.4182 9.239 2.55305e-023 0 -2.31416e-026 
-8.18168 67.0345 -18.6314 1.89807e-008 -2.77086e-007 -24.4476 0 8.7983 -4.7612 0.684434 -0.272129 -0.724614 -1.77636e-015 8.0291 0.4195 1.36539 -0.552868 -1.44591 -1.77636e-015 9.9351 -2.2114 1.36539 -0.552868 -1.4459 0 22.3885 -0.4656 -1.14613 4.58635 5.70344 -0.0001 12.643 3.4389 1.18467 -1.3036 5.21443 2.2603 21.606 7.4023 -6.65669 -0.555189 -11.8396 13.5163 -1.1332 -5.0146 72.9439 13.0275 17.0335 -0.0995 -28.05 -0.2431 -10.3089 -4.89863 -16.8321 0.0679 -23.3996 -0.1402 0.12173 -1.39686 2.36703 0.7932 -9.069 2.5189 -1.59028e-015 -3.18055e-015 4.77083e-015 -0.8272 -3.3923 0.5977 -7.95139e-016 -1.59028e-014 -4.77083e-015 -0.5649 -2.3158 0.4082 9.83387e-006 -3.24398e-006 -4.64815e-006 0.9159 -9.2044 0.2193 -1.59028e-015 -3.18055e-015 4.77083e-015 0.0117 -4.1944 -0.0248 -0.012794 0.00231846 7.84847e-005 0.0071 -2.3249 -0.0142 -1.64569e-005 3.5519e-007 5.70054e-006 0.6113 -8.7231 -2.0637 -1.59028e-015 -3.18055e-015 4.77083e-015 -0.1927 -3.8059 -0.2383 -0.0160205 0.00299771 0.000856185 -0.1091 -2.1688 -0.1362 -8.17524e-006 4.48461e-006 4.38432e-006 -0.6151 -8.0947 -3.5641 -1.59028e-015 -3.18055e-015 4.77083e-015 -0.4882 -2.341 -0.6462 -0.0125021 0.00310626 0.00280885 -0.3575 -1.7167 -0.4742 4.51879e-007 9.08288e-007 7.01422e-007 -1.42 -1.8761 1.4223 -1.59028e-015 -3.18055e-015 4.77083e-015 -1.1471 -3.4929 2.6334 -7.95139e-016 -1.59028e-014 -4.77083e-015 -0.823 -2.3 1.6571 9.83387e-006 -3.24398e-006 -4.64815e-006 -2.2603 21.606 7.4023 6.72314 5.94879 8.95363 -13.5187 -1.1334 -5.0155 -75.7086 8.17844 6.45057 0.0994 -28.0499 -0.2431 -1.19886 -8.05862 -3.58068 -0.0679 -23.3996 -0.1402 1.45307 1.62106 -12.6016 -0.7932 -9.0691 2.5189 7.95139e-016 3.18055e-015 1.59028e-015 0.8272 -3.3923 0.5977 -2.82787e-007 1.68614e-006 7.7692e-007 0.565 -2.3158 0.4082 -1.76556e-031 -6.36111e-015 -1.59028e-015 -0.916 -9.2044 0.2193 7.95139e-016 3.18055e-015 1.59028e-015 -0.0117 -4.1944 -0.0248 0.0129824 0.00232197 -8.38979e-005 -0.0071 -2.3249 -0.0142 -7.15625e-015 -1.17103e-008 -1.59028e-015 -0.6113 -8.7231 -2.0637 7.95139e-016 3.18055e-015 1.59028e-015 0.1927 -3.8059 -0.2383 0.0161956 0.0030083 -0.000856751 0.1091 -2.1688 -0.1362 -2.5163e-005 -1.72295e-006 -8.4648e-006 0.6151 -8.0947 -3.564 7.95139e-016 3.18055e-015 1.59028e-015 0.4882 -2.341 -0.6462 0.0146524 0.00370114 -0.0032735 0.3574 -1.7166 -0.4742 -2.82783e-007 -2.34325e-008 7.7689e-007 1.4199 -1.8761 1.4221 7.95139e-016 3.18055e-015 1.59028e-015 1.1472 -3.4929 2.6336 -2.82787e-007 1.68614e-006 7.7692e-007 0.8229 -2.3 1.6571 -1.76556e-031 -6.36111e-015 -1.59028e-015 -9.412 3.9771 -0.7758 -0.248098 2.60803 -4.91424 -0.7531 -40.938 1.77636e-015 1.90821 0.00297066 -0.27526 0 -40.1986 -3.55271e-015 -7.32423 -2.27315 3.48597 0 -4.4182 9.239 9.52721e-007 -1.39991e-008 7.32915e-006 9.4119 3.9773 -0.7758 1.41075 6.86943 -0.453721 0.7532 -40.9383 0 -2.03376 0.186379 0.137666 0 -40.1986 0 -4.44739 -2.48233 20.48 0 -4.4182 9.239 -4.4715e-007 -2.84422e-008 1.66562e-007 
-16.0794 66.8771 -41.2674 -4.23802e-008 1.18313e-009 -48.8952 7.10543e-015 8.7983 -4.7612 1.37773 -0.540892 -1.41548 7.10543e-015 8.0291 0.4195 2.74187 -1.11549 -2.81775 1.42109e-014 9.9351 -2.2114 2.74188 -1.11549 -2.81774 0 22.3885 -0.4656 -3.20949 9.03563 11.5149 -0.0001 12.643 3.4389 2.60553 -2.57478 10.4368 2.2603 21.606 7.4023 -13.3004 -1.11021 -11.1778 13.5163 -1.1332 -5.0146 57.9566 11.0061 23.0936 -0.0995 -28.05 -0.2431 -20.5419 -9.99376 -33.3173 0.0679 -23.3996 -0.1402 0.244223 -2.797 4.72453 0.7932 -9.069 2.5189 -6.36111e-015 1.11319e-014 -1.59028e-015 -0.8272 -3.3923 0.5977 -3.18055e-015 4.77083e-015 -0 -0.5649 -2.3158 0.4082 -3.18055e-015 6.36111e-015 -1.59028e-015 0.9159 -9.2044 0.2193 -6.36111e-015 1.11319e-014 -1.59028e-015 0.0117 -4.1944 -0.0248 -0.0128057 0.00232373 7.88301e-005 0.0071 -2.3249 -0.0142 6.36111e-015 7.95139e-015 1.59028e-015 0.6113 -8.7231 -2.0637 -6.36111e-015 1.11319e-014 -1.59028e-015 -0.1927 -3.8059 -0.2383 -0.0159615 0.00299347 0.000857058 -0.1091 -2.1688 -0.1362 6.36111e-015 -3.18055e-015 6.36111e-015 -0.6151 -8.0947 -3.5641 -6.36111e-015 1.11319e-014 -1.59028e-015 -0.4882 -2.341 -0.6462 -0.0126014 0.00312836 0.00283385 -0.3575 -1.7167 -0.4742 -6.36111e-015 3.18055e-015 1.59028e-015 -1.42 -1.8761 1.4223 -6.36111e-015 1.11319e-014 -1.59028e-015 -1.1471 -3.4929 2.6334 -3.18055e-015 4.77083e-015 -0 -0.823 -2.3 1.6571 -3.18055e-015 6.36111e-015 -1.59028e-015 -2.2603 21.606 7.4023 13.9264 11.7128 10.9281 -13.5187 -1.1334 -5.0155 -63.5142 5.50006 23.485 0.0994 -28.0499 -0.2431 -2.36669 -16.1162 -6.91654 -0.0679 -23.3996 -0.1402 2.84738 3.09171 -25.2348 -0.7932 -9.0691 2.5189 6.36111e-015 2.94005e-008 -0 0.8272 -3.3923 0.5977 -1.36686e-023 2.46232e-007 3.18055e-015 0.565 -2.3158 0.4082 -1.59028e-015 -2.75632e-007 6.36111e-015 -0.916 -9.2044 0.2193 6.36111e-015 2.94005e-008 -0 -0.0117 -4.1944 -0.0248 0.0130315 0.0023377 -8.77549e-005 -0.0071 -2.3249 -0.0142 4.77083e-015 -5.29611e-006 -6.36111e-015 -0.6113 -8.7231 -2.0637 6.36111e-015 2.94005e-008 -0 0.1927 -3.8059 -0.2383 0.0162861 0.0030284 -0.000863335 0.1091 -2.1688 -0.1362 -3.7314e-007 -6.19499e-006 -4.81092e-006 0.6151 -8.0947 -3.564 6.36111e-015 2.94005e-008 -0 0.4882 -2.341 -0.6462 0.0145793 0.0036772 -0.00325454 0.3574 -1.7166 -0.4742 -2.73018e-006 -8.84257e-006 4.27629e-008 1.4199 -1.8761 1.4221 6.36111e-015 2.94005e-008 -0 1.1472 -3.4929 2.6336 -1.36686e-023 2.46232e-007 3.18055e-015 0.8229 -2.3 1.6571 -1.59028e-015 -2.75632e-007 6.36111e-015 -9.412 3.9771 -0.7758 -3.7375 3.51006 -9.77332 -0.7531 -40.938 0 3.81265 -0.0273277 -0.584967 0 -40.1986 0 -11.1806 -2.80767 7.01161 -7.10543e-015 -4.4182 9.239 -2.01203e-006 2.48491e-006 -8.66646e-006 9.4119 3.9773 -0.7758 6.50263 11.6292 -0.925431 0.7532 -40.9383 3.55271e-015 -4.06009 1.25531 0.322291 0 -40.1986 0 -12.1247 -3.49665 40.7672 0 -4.4182 9.239 1.98785e-016 4.56839e-011 -7.95139e-016 
-21.3083 66.7721 -57.3059 3.43202e-007 4.40828e-006 -66.0085 7.10543e-015 8.7983 -4.7612 1.85962 -0.725637 -1.84947 7.10543e-015 8.0291 0.4195 3.69534 -1.51054 -3.67492 7.10543e-015 9.9351 -2.2114 3.69535 -1.51054 -3.67491 0 22.3885 -0.4656 -5.20261 12.0317 15.7026 -0.0001 12.643 3.4389 3.73572 -3.3939 14.0967 2.2603 21.606 7.4023 -17.9433 -1.49847 -10.7144 13.5163 -1.1332 -5.0146 47.5614 9.16579 27.0702 -0.0995 -28.05 -0.2431 -27.6444 -13.7212 -44.6464 0.0679 -23.3996 -0.1402 0.330443 -3.77925 6.36963 0.7932 -9.069 2.5189 0 9.54166e-015 -0 -0.8272 -3.3923 0.5977 2.71487e-006 2.62835e-006 -1.28491e-006 -0.5649 -2.3158 0.4082 1.76556e-031 3.18055e-015 -3.18055e-015 0.9159 -9.2044 0.2193 0 9.54166e-015 -0 0.0117 -4.1944 -0.0248 -0.0128413 0.00233042 8.64595e-005 0.0071 -2.3249 -0.0142 9.93789e-006 -3.75529e-006 -3.51304e-007 0.6113 -8.7231 -2.0637 0 9.54166e-015 -0 -0.1927 -3.8059 -0.2383 -0.0160569 0.00300502 0.000863745 -0.1091 -2.1688 -0.1362 3.18055e-015 -7.95139e-016 -0 -0.6151 -8.0947 -3.5641 0 9.54166e-015 -0 -0.4882 -2.341 -0.6462 -0.0126212 0.00312779 0.00283833 -0.3575 -1.7167 -0.4742 3.18055e-015 6.36111e-015 1.59028e-015 -1.42 -1.8761 1.4223 0 9.54166e-015 -0 -1.1471 -3.4929 2.6334 2.71487e-006 2.62835e-006 -1.28491e-006 -0.823 -2.3 1.6571 1.76556e-031 3.18055e-015 -3.18055e-015 -2.2603 21.606 7.4023 18.7519 15.727 12.3974 -13.5187 -1.1334 -5.0155 -55.0116 3.25983 35.4485 0.0994 -28.0499 -0.2431 -3.1285 -21.7545 -9.09214 -0.0679 -23.3996 -0.1402 3.77155 4.04006 -34.0921 -0.7932 -9.0691 2.5189 3.97569e-015 -7.15625e-015 -6.36111e-015 0.8272 -3.3923 0.5977 3.18055e-015 -3.57812e-015 -1.59028e-014 0.565 -2.3158 0.4082 1.59028e-015 -5.56597e-015 -3.18055e-015 -0.916 -9.2044 0.2193 3.97569e-015 -7.15625e-015 -6.36111e-015 -0.0117 -4.1944 -0.0248 0.0128835 0.0023042 -7.24078e-005 -0.0071 -2.3249 -0.0142 -2.38542e-015 -5.1684e-015 3.18055e-015 -0.6113 -8.7231 -2.0637 3.97569e-015 -7.15625e-015 -6.36111e-015 0.1927 -3.8059 -0.2383 0.0163227 0.00302712 -0.000869916 0.1091 -2.1688 -0.1362 -7.95139e-016 2.38542e-015 3.18055e-015 0.6151 -8.0947 -3.564 3.97569e-015 -7.15625e-015 -6.36111e-015 0.4882 -2.341 -0.6462 0.0146755 0.00371021 -0.00327542 0.3574 -1.7166 -0.4742 1.59028e-015 0 3.18055e-015 1.4199 -1.8761 1.4221 3.97569e-015 -7.15625e-015 -6.36111e-015 1.1472 -3.4929 2.6336 3.18055e-015 -3.57812e-015 -1.59028e-014 0.8229 -2.3 1.6571 1.59028e-015 -5.56597e-015 -3.18055e-015 -9.412 3.9771 -0.7758 -6.1182 4.04202 -13.1838 -0.7531 -40.938 3.55271e-015 5.14288 0.101189 -0.830956 1.42109e-014 -40.1986 -3.55271e-015 -13.8336 -3.17804 9.47977 0 -4.4182 9.239 3.18055e-015 3.02725e-006 -0 9.4119 3.9773 -0.7758 10.1756 14.7813 -1.23285 0.7532 -40.9383 0 -5.47603 2.46744 0.466598 0 -40.1986 -3.55271e-015 -17.4289 -4.22859 54.7927 -8.88179e-016 -4.4182 9.239 -6.53509e-007 -4.32758e-008 6.82229e-007 
